<?xml version="1.0" standalone="no"?>
<!DOCTYPE svg PUBLIC "-//W3C//DTD SVG 20010904//EN"
 "http://www.w3.org/TR/2001/REC-SVG-20010904/DTD/svg10.dtd">
<svg version="1.0" xmlns="http://www.w3.org/2000/svg"
 width="400.000000pt" height="225.000000pt" viewBox="0 0 400.000000 225.000000"
 preserveAspectRatio="xMidYMid meet">
<metadata>
Created by potrace 1.16, written by Peter Selinger 2001-2019
</metadata>
<g transform="translate(0.000000,225.000000) scale(0.100000,-0.100000)"
fill="#000000" stroke="none">
<path d="M2199 2031 c-35 -21 -128 -75 -206 -120 l-143 -83 37 -66 c20 -37 39
-71 43 -77 4 -5 77 -131 163 -280 85 -148 166 -290 181 -315 14 -25 52 -91 83
-147 l58 -103 278 0 c152 0 277 2 277 4 0 3 -73 130 -161 283 -167 287 -275
474 -446 770 l-100 172 -64 -38z"/>
<path d="M1685 1575 c-60 -36 -152 -88 -203 -117 -74 -41 -92 -56 -89 -70 3
-10 74 -137 159 -283 l153 -265 273 0 c149 0 272 3 272 8 0 4 -39 75 -86 157
-281 488 -358 621 -363 627 -3 4 -55 -22 -116 -57z"/>
<path d="M1135 1114 c-99 -58 -190 -110 -202 -116 -13 -6 -23 -15 -23 -20 0
-5 17 -38 37 -73 l37 -65 273 0 c156 0 273 4 273 9 0 5 -15 35 -34 68 -18 32
-61 108 -96 168 -35 61 -68 115 -74 122 -8 9 -54 -13 -191 -93z"/>
<path d="M1700 715 l0 -65 65 0 65 0 0 65 0 65 -65 0 -65 0 0 -65z"/>
<path d="M1530 676 l0 -95 -36 15 c-56 23 -154 21 -208 -6 -51 -24 -102 -77
-122 -126 -19 -44 -18 -146 2 -192 19 -47 68 -98 119 -125 52 -27 164 -29 213
-4 28 15 32 16 32 2 0 -12 13 -15 60 -15 l60 0 0 320 0 320 -60 0 -60 0 0 -94z
m-53 -207 c60 -56 65 -136 11 -189 -53 -54 -128 -52 -185 5 -28 28 -33 40 -33
79 0 53 20 90 65 118 40 25 107 19 142 -13z"/>
<path d="M2250 676 l0 -95 -37 16 c-56 23 -152 20 -207 -6 -86 -42 -136 -121
-137 -219 -2 -97 47 -177 136 -225 51 -28 164 -29 213 -4 28 15 32 16 32 2 0
-12 13 -15 60 -15 l60 0 0 320 0 320 -60 0 -60 0 0 -94z m-43 -220 c55 -60 56
-109 2 -171 -52 -59 -126 -60 -186 0 -28 28 -33 40 -33 82 0 121 136 177 217
89z"/>
<path d="M802 609 c-223 -43 -262 -354 -57 -462 52 -27 165 -29 213 -4 28 15
32 16 32 2 0 -12 13 -15 60 -15 l60 0 0 240 0 240 -60 0 c-46 0 -60 -3 -60
-14 0 -13 -5 -13 -32 -2 -47 19 -106 25 -156 15z m114 -125 c68 -32 93 -116
54 -179 -21 -34 -73 -65 -109 -65 -40 0 -90 28 -111 62 -38 62 -19 141 43 178
39 24 78 25 123 4z"/>
<path d="M2603 609 c-140 -26 -227 -159 -193 -298 16 -67 58 -121 122 -156 43
-24 65 -30 118 -30 40 0 77 6 97 17 26 13 33 14 37 2 4 -10 23 -14 66 -14 l60
0 0 240 0 240 -65 0 c-50 0 -65 -3 -65 -14 0 -13 -5 -13 -32 -2 -47 19 -96 24
-145 15z m114 -129 c45 -27 66 -73 60 -127 -6 -53 -36 -89 -88 -104 -46 -14
-78 -7 -118 26 -60 51 -62 132 -3 187 46 43 98 50 149 18z"/>
<path d="M3105 611 c-118 -19 -180 -124 -131 -219 21 -41 61 -61 159 -78 106
-19 130 -40 89 -77 -39 -36 -142 -11 -142 34 0 17 -7 19 -66 19 l-67 0 6 -38
c21 -128 258 -178 372 -78 59 51 67 154 16 200 -26 24 -106 52 -169 61 -65 9
-103 35 -83 59 33 39 124 27 141 -19 9 -24 14 -26 67 -23 55 3 58 4 55 28 -13
90 -126 150 -247 131z"/>
<path d="M1700 370 l0 -241 63 3 62 3 3 238 2 237 -65 0 -65 0 0 -240z"/>
</g>
</svg>
